<svg width="36" height="28" viewBox="0 0 36 28" fill="none" xmlns="http://www.w3.org/2000/svg">
<path d="M9 27.0909C6.51818 27.0909 4.39773 26.2318 2.63864 24.5136C0.879546 22.7954 0 20.6954 0 18.2136C0 16.0863 0.640909 14.1909 1.92273 12.5272C3.20455 10.8636 4.88182 9.79997 6.95455 9.33633C7.63636 6.82724 9 4.79542 11.0455 3.24088C13.0909 1.68633 15.4091 0.909058 18 0.909058C21.1909 0.909058 23.8977 2.02042 26.1205 4.24315C28.3432 6.46588 29.4545 9.17269 29.4545 12.3636C31.3364 12.5818 32.8977 13.3931 34.1386 14.7977C35.3795 16.2022 36 17.8454 36 19.7272C36 21.7727 35.2841 23.5113 33.8523 24.9431C32.4205 26.375 30.6818 27.0909 28.6364 27.0909H19.6364C18.7364 27.0909 17.9659 26.7704 17.325 26.1295C16.6841 25.4886 16.3636 24.7181 16.3636 23.8181V15.3909L13.7455 17.9272L11.4545 15.6363L18 9.09088L24.5455 15.6363L22.2545 17.9272L19.6364 15.3909V23.8181H28.6364C29.7818 23.8181 30.75 23.4227 31.5409 22.6318C32.3318 21.8409 32.7273 20.8727 32.7273 19.7272C32.7273 18.5818 32.3318 17.6136 31.5409 16.8227C30.75 16.0318 29.7818 15.6363 28.6364 15.6363H26.1818V12.3636C26.1818 10.1 25.3841 8.17042 23.7886 6.57497C22.1932 4.97951 20.2636 4.18178 18 4.18178C15.7364 4.18178 13.8068 4.97951 12.2114 6.57497C10.6159 8.17042 9.81818 10.1 9.81818 12.3636H9C7.41818 12.3636 6.06818 12.9227 4.95 14.0409C3.83182 15.1591 3.27273 16.5091 3.27273 18.0909C3.27273 19.6727 3.83182 21.0227 4.95 22.1409C6.06818 23.2591 7.41818 23.8181 9 23.8181H13.0909V27.0909H9Z" fill="#DADADA"/>
</svg>
